=================== Britney Spears - I Wanna Go HD 1080p =======================

Format                           : MPEG-4
Format profile                   : Base Media / Version 2
Codec ID                         : mp42
File size                        : 118 MiB
Duration                         : 4mn 33s
Overall bit rate                 : 3 613 Kbps
Encoded date                     : UTC 2011-06-20 12:02:04
Tagged date                      : UTC 2011-06-20 12:02:04
gsst                             : 0
gstd                             : 273931
gssd                             : BCA9FD844HH1308768426383371
gshh                   

Video
ID                               : 1
Format                           : AVC
Format/Info                      : Advanced Video Codec
Format profile                   : High@L4.0
Format settings, CABAC           : Yes
Format settings, ReFrames        : 1 frame
Codec ID                         : avc1
Codec ID/Info                    : Advanced Video Coding
Duration                         : 4mn 33s
Bit rate mode                    : Variable
Bit rate                         : 3 456 Kbps
Maximum bit rate                 : 10.0 Mbps
Width                            : 1 920 pixels
Height                           : 1 080 pixels
Display aspect ratio             : 16:9
Frame rate mode                  : Variable
Frame rate                       : 23.976 fps
Minimum frame rate               : 17.241 fps
Maximum frame rate               : 24.390 fps
Color space                      : YUV
Chroma subsampling               : 4:2:0
Bit depth                        : 8 bits
Scan type                        : Progressive
Bits/(Pixel*Frame)               : 0.070
Stream size                      : 113 MiB (96%)
Tagged date                      : UTC 2011-06-20 12:02:06

Audio
ID                               : 2
Format                           : AAC
Format/Info                      : Advanced Audio Codec
Format version                   : Version 4
Format profile                   : LC
Format settings, SBR             : No
Codec ID                         : 40
Duration                         : 4mn 33s
Bit rate mode                    : Variable
Bit rate                         : 151 Kbps
Maximum bit rate                 : 212 Kbps
Channel(s)                       : 2 channels
Channel positions                : Front: L R
Sampling rate                    : 44.1 KHz
Stream size                      : 4.94 MiB

========================== SCREEN SHOTS===================================

                    http://bayimg.com/EAIMgAadm 


============================ FOLLOW ME ON TWEETER AND FACEBOOK =================

           http :///#!/ haunting_summer

  http: // www. facebook. com/ pages/ HaUnTiNgSuMMeR-ToRrEnTs/ 192812490771363

=================================================================================

--------------- PLZ RATE +/- THE QUALITY N COMMENT IF POSSIBLE -----------------
